<svg width="129" height="238" viewBox="0 0 129 238" fill="none" xmlns="http://www.w3.org/2000/svg">
<g filter="url(#filter0_f_11_42)">
<path d="M98.8454 230.066L100.405 233.2C98.6742 234.061 96.5732 233.356 95.712 231.626L98.8454 230.066ZM163.574 197.856L166.707 196.296C167.568 198.027 166.863 200.128 165.133 200.989L163.574 197.856ZM87.9986 45.9861L89.6506 42.9005L90.6348 43.4274L91.1321 44.4268L87.9986 45.9861ZM55.7944 28.7448L54.1424 31.8304L53.1582 31.3035L52.6609 30.3041L55.7944 28.7448ZM46.1792 9.42295L44.6199 6.28949C46.3505 5.42831 48.4515 6.13309 49.3127 7.86365L46.1792 9.42295ZM20.6744 22.1149L17.5409 23.6742C16.6798 21.9437 17.3845 19.8426 19.1151 18.9815L20.6744 22.1149ZM30.2895 41.4368L33.423 39.8775L33.9488 40.934L33.7274 42.0932L30.2895 41.4368ZM23.2705 78.1968L20.137 79.7561L19.6113 78.6995L19.8326 77.5403L23.2705 78.1968ZM63.6145 151.413L101.979 228.507L95.712 231.626L57.3476 154.532L63.6145 151.413ZM97.2861 226.933L162.014 194.722L165.133 200.989L100.405 233.2L97.2861 226.933ZM160.44 199.415L84.8652 47.5454L91.1321 44.4268L166.707 196.296L160.44 199.415ZM86.3467 49.0717L54.1424 31.8304L57.4463 25.6592L89.6506 42.9005L86.3467 49.0717ZM52.6609 30.3041L43.0458 10.9823L49.3127 7.86365L58.9278 27.1855L52.6609 30.3041ZM47.7385 12.5564L22.2337 25.2484L19.1151 18.9815L44.6199 6.28949L47.7385 12.5564ZM23.8079 20.5556L33.423 39.8775L27.1561 42.9961L17.5409 23.6742L23.8079 20.5556ZM33.7274 42.0932L26.7084 78.8532L19.8326 77.5403L26.8516 40.7803L33.7274 42.0932ZM26.404 76.6375L46.3073 116.634L40.0404 119.752L20.137 79.7561L26.404 76.6375Z" fill="#00856F"/>
<path d="M48.3642 129.592L55.0948 143.117" stroke="#00856F" stroke-width="7"/>
<path d="M56.0856 27.8767L29.8079 40.9533" stroke="#00856F" stroke-width="7"/>
</g>
<defs>
<filter id="filter0_f_11_42" x="13.1736" y="1.92224" width="157.901" height="235.645" filterUnits="userSpaceOnUse" color-interpolation-filters="sRGB">
<feFlood flood-opacity="0" result="BackgroundImageFix"/>
<feBlend mode="normal" in="SourceGraphic" in2="BackgroundImageFix" result="shape"/>
<feGaussianBlur stdDeviation="2" result="effect1_foregroundBlur_11_42"/>
</filter>
</defs>
</svg>
