<svg width="230" height="252" viewBox="0 0 230 252" fill="none" xmlns="http://www.w3.org/2000/svg">
<g filter="url(#filter0_i_0_1)">
<path opacity="0.2" d="M43.217 39.9459C42.0421 30.9654 49.0333 23 58.0903 23H212.79C221.713 23 228.662 30.7412 227.703 39.6118L206.499 235.81C205.676 243.426 199.246 249.199 191.586 249.199H83.7591C76.227 249.199 69.8629 243.613 68.8858 236.144L43.217 39.9459Z" fill="#00856F"/>
<mask id="path-2-outside-1_0_1" maskUnits="userSpaceOnUse" x="7.43884" y="0" width="214" height="136" fill="black">
<rect fill="white" x="7.43884" width="214" height="136"/>
<path d="M214.628 94.9487L188.629 92.4122L167.069 89.2415L183.556 129.826L214.628 94.9487Z"/>
</mask>
<path d="M10.4388 3V0C9.56917 0 8.74229 0.377396 8.17248 1.03439C7.60267 1.69139 7.346 2.56333 7.46899 3.42426L10.4388 3ZM200.043 3L203.019 3.3799C203.128 2.52497 202.865 1.6644 202.295 1.01754C201.725 0.370672 200.905 0 200.043 0V3ZM21.0182 55.8426L13.4087 2.57574L7.46899 3.42426L15.0785 56.6911L21.0182 55.8426ZM10.4388 6H200.043V0H10.4388V6ZM197.068 2.6201L185.653 92.0323L191.605 92.7921L203.019 3.3799L197.068 2.6201ZM188.629 92.4122L187.756 98.3483C187.853 98.3625 187.949 98.3744 188.046 98.3838L188.629 92.4122ZM214.628 94.9487L219.108 98.9399C220.611 97.2535 221.039 94.8662 220.216 92.7629C219.393 90.6595 217.459 89.1964 215.211 88.977L214.628 94.9487ZM183.556 129.826L177.997 132.084C178.777 134.004 180.493 135.386 182.535 135.738C184.578 136.091 186.657 135.364 188.036 133.817L183.556 129.826ZM167.069 89.2415L167.942 83.3054C165.812 82.9922 163.678 83.8438 162.349 85.537C161.02 87.2302 160.7 89.5056 161.51 91.4998L167.069 89.2415ZM188.046 98.3838L214.046 100.92L215.211 88.977L189.212 86.4405L188.046 98.3838ZM210.148 90.9575L179.076 125.835L188.036 133.817L219.108 98.9399L210.148 90.9575ZM189.115 127.568L172.627 86.9833L161.51 91.4998L177.997 132.084L189.115 127.568ZM166.196 95.1777L187.756 98.3483L189.502 86.476L167.942 83.3054L166.196 95.1777Z" fill="#00856F" mask="url(#path-2-outside-1_0_1)"/>
<path d="M172.141 232.384C173.671 232.384 174.956 231.233 175.123 229.712L183.367 154.885L177.403 154.228L169.454 226.384L117.883 226.384L117.883 210.994C117.883 209.851 117.234 208.808 116.209 208.303C115.184 207.798 113.96 207.919 113.055 208.616L89.144 227.006C88.3839 227.591 87.9491 228.503 87.974 229.462C87.9989 230.42 88.4806 231.309 89.27 231.854L113.18 248.341C114.098 248.974 115.291 249.046 116.278 248.527C117.265 248.009 117.883 246.986 117.883 245.871L117.883 232.384L172.141 232.384Z" stroke="#00856F" stroke-width="6" stroke-linejoin="round"/>
<path d="M34.7244 232.885C34.8926 234.404 36.1771 235.555 37.7062 235.555L59.9008 235.555L59.9008 229.555L40.3926 229.555L27.7397 115.188L41.3042 115.188C42.4847 115.188 43.5555 114.495 44.04 113.419C44.5244 112.342 44.3324 111.082 43.5495 110.198L23.5443 87.6218C22.9084 86.9042 21.9676 86.5337 21.0131 86.6251C20.0585 86.7165 19.2052 87.2587 18.717 88.084L3.92926 113.081C3.34374 114.071 3.37555 115.309 4.01115 116.267C4.64676 117.225 5.77429 117.736 6.91389 117.582L21.7458 115.573L34.7244 232.885Z" stroke="#00856F" stroke-width="6" stroke-linejoin="round"/>
</g>
<path d="M92.5466 124.198L91.8583 125.531C92.4483 125.836 93.1685 125.716 93.6285 125.237C94.0885 124.758 94.1788 124.034 93.8504 123.457L92.5466 124.198ZM81.9192 105.517L83.2229 104.776C82.9401 104.278 82.3993 103.985 81.8284 104.02L81.9192 105.517ZM60 106.846L59.9093 105.348C59.2379 105.389 58.6757 105.872 58.5338 106.529C58.3918 107.186 58.7048 107.858 59.2995 108.172L60 106.846ZM67.3894 110.748L68.717 111.446C69.1022 110.714 68.8216 109.808 68.0899 109.422L67.3894 110.748ZM60.6642 123.534L59.3367 122.836C59.1044 123.277 59.1069 123.806 59.3433 124.245L60.6642 123.534ZM71.7898 144.208L70.469 144.919L70.5358 145.043L70.6247 145.153L71.7898 144.208ZM78.515 149.605L77.7932 150.919C78.0022 151.034 78.2356 151.098 78.474 151.104L78.515 149.605ZM96.698 150.103L96.6569 151.602C97.0662 151.613 97.4623 151.457 97.7533 151.169C98.0443 150.881 98.2048 150.486 98.1978 150.077L96.698 150.103ZM96.3659 130.924L97.8656 130.898L97.8406 129.452L96.3948 129.424L96.3659 130.924ZM79.1793 130.591L77.873 129.854L77.8676 129.864L79.1793 130.591ZM72.8692 141.966L71.5575 141.238L71.2643 141.767L71.4195 142.351L72.8692 141.966ZM74.2807 147.28L73.1155 148.225L73.3008 148.453L73.5588 148.595L74.2807 147.28ZM84.9912 120.296L85.6795 118.963C84.9627 118.593 84.0815 118.856 83.6849 119.559L84.9912 120.296ZM93.8504 123.457L83.2229 104.776L80.6154 106.259L91.2428 124.94L93.8504 123.457ZM81.8284 104.02L59.9093 105.348L60.0907 108.343L82.0099 107.014L81.8284 104.02ZM59.2995 108.172L66.6889 112.074L68.0899 109.422L60.7005 105.519L59.2995 108.172ZM66.0618 110.05L59.3367 122.836L61.9918 124.232L68.717 111.446L66.0618 110.05ZM59.3433 124.245L70.469 144.919L73.1107 143.497L61.9851 122.823L59.3433 124.245ZM78.474 151.104L96.6569 151.602L96.7391 148.603L78.5561 148.105L78.474 151.104ZM98.1978 150.077L97.8656 130.898L94.8661 130.949L95.1982 150.129L98.1978 150.077ZM96.3948 129.424L79.2082 129.092L79.1503 132.091L96.3369 132.423L96.3948 129.424ZM77.8676 129.864L71.5575 141.238L74.1809 142.694L80.4909 131.319L77.8676 129.864ZM70.6247 145.153L73.1155 148.225L75.4458 146.335L72.955 143.263L70.6247 145.153ZM73.5588 148.595L77.7932 150.919L79.2369 148.29L75.0025 145.965L73.5588 148.595ZM71.4195 142.351L72.8309 147.665L75.7304 146.895L74.3189 141.581L71.4195 142.351ZM93.235 122.866L85.6795 118.963L84.3028 121.629L91.8583 125.531L93.235 122.866ZM83.6849 119.559L77.873 129.854L80.4855 131.329L86.2974 121.033L83.6849 119.559Z" fill="#00856F"/>
<path d="M102.597 106.246L101.811 104.969C101.245 105.317 100.976 105.995 101.149 106.637C101.322 107.278 101.896 107.729 102.56 107.746L102.597 106.246ZM124.083 106.783L124.045 108.283C124.617 108.297 125.147 107.985 125.412 107.478L124.083 106.783ZM134.256 87.3224L135.585 88.0173C135.897 87.4213 135.774 86.6907 135.284 86.2299C134.794 85.769 134.057 85.6906 133.481 86.0379L134.256 87.3224ZM127.1 91.6382L125.817 92.415C126.246 93.1229 127.166 93.35 127.875 92.9227L127.1 91.6382ZM119.619 79.2795L120.902 78.5027C120.643 78.0758 120.19 77.8054 119.691 77.7812L119.619 79.2795ZM96.1689 78.1408L96.2416 76.6426L96.1007 76.6358L95.9609 76.6553L96.1689 78.1408ZM88.0757 81.1165L87.322 79.8196C87.1158 79.9394 86.9412 80.1067 86.8126 80.3075L88.0757 81.1165ZM78.2659 96.4343L77.0027 95.6253C76.7819 95.9701 76.7117 96.3902 76.8082 96.7881C76.9048 97.186 77.1599 97.5271 77.5142 97.7323L78.2659 96.4343ZM94.8656 106.047L94.1139 107.345L95.3652 108.07L96.1352 106.846L94.8656 106.047ZM104.019 91.497L105.325 90.7586L105.319 90.7489L104.019 91.497ZM97.5321 80.2222L98.8322 79.4741L98.5308 78.9502L97.9503 78.7817L97.5321 80.2222ZM92.2521 78.6891L92.0442 77.2036L91.7528 77.2444L91.4984 77.3922L92.2521 78.6891ZM109.838 101.788L110.625 103.065C111.312 102.642 111.541 101.752 111.144 101.05L109.838 101.788ZM102.56 107.746L124.045 108.283L124.12 105.284L102.635 104.747L102.56 107.746ZM125.412 107.478L135.585 88.0173L132.927 86.6275L122.753 106.088L125.412 107.478ZM133.481 86.0379L126.326 90.3537L127.875 92.9227L135.031 88.6069L133.481 86.0379ZM128.383 90.8614L120.902 78.5027L118.335 80.0563L125.817 92.415L128.383 90.8614ZM119.691 77.7812L96.2416 76.6426L96.0961 79.6391L119.546 80.7777L119.691 77.7812ZM86.8126 80.3075L77.0027 95.6253L79.5291 97.2432L89.3389 81.9254L86.8126 80.3075ZM77.5142 97.7323L94.1139 107.345L95.6173 104.749L79.0176 95.1362L77.5142 97.7323ZM96.1352 106.846L105.289 92.2957L102.749 90.6982L93.5959 105.248L96.1352 106.846ZM105.319 90.7489L98.8322 79.4741L96.2319 80.9702L102.719 92.245L105.319 90.7489ZM95.9609 76.6553L92.0442 77.2036L92.4601 80.1746L96.3768 79.6264L95.9609 76.6553ZM91.4984 77.3922L87.322 79.8196L88.8295 82.4133L93.0059 79.986L91.4984 77.3922ZM97.9503 78.7817L92.6704 77.2486L91.8339 80.1296L97.1138 81.6627L97.9503 78.7817ZM103.383 107.523L110.625 103.065L109.052 100.511L101.811 104.969L103.383 107.523ZM111.144 101.05L105.325 90.7586L102.713 92.2353L108.533 102.526L111.144 101.05Z" fill="#00856F"/>
<path d="M114.888 123.042L116.388 123.002C116.37 122.338 115.917 121.765 115.276 121.593C114.634 121.422 113.957 121.692 113.609 122.258L114.888 123.042ZM103.442 141.707L102.164 140.923C101.861 141.417 101.87 142.042 102.187 142.527L103.442 141.707ZM115.401 160.018L114.146 160.838C114.511 161.398 115.203 161.648 115.842 161.452C116.481 161.255 116.913 160.66 116.901 159.991L115.401 160.018ZM115.251 151.642L115.185 150.143C114.373 150.179 113.737 150.856 113.752 151.669L115.251 151.642ZM129.966 150.992L130.032 152.49C130.518 152.469 130.963 152.214 131.226 151.805L129.966 150.992ZM142.945 130.887L144.205 131.7L144.281 131.583L144.334 131.454L142.945 130.887ZM144.455 122.329L145.955 122.327C145.955 122.083 145.895 121.842 145.78 121.626L144.455 122.329ZM135.962 106.329L137.287 105.626C137.095 105.264 136.764 104.997 136.37 104.885C135.975 104.774 135.553 104.829 135.2 105.037L135.962 106.329ZM119.012 116.329L118.25 115.037L117.004 115.772L117.693 117.043L119.012 116.329ZM127.163 131.382L127.185 132.882L127.196 132.882L127.163 131.382ZM140.414 131.087L140.448 132.587L141.035 132.574L141.457 132.166L140.414 131.087ZM144.462 127.174L145.851 127.741L145.962 127.468L145.962 127.172L144.462 127.174ZM115.12 131.562L113.62 131.603C113.643 132.424 114.321 133.074 115.142 133.062L115.12 131.562ZM113.609 122.258L102.164 140.923L104.721 142.491L116.167 123.827L113.609 122.258ZM102.187 142.527L114.146 160.838L116.657 159.198L104.698 140.887L102.187 142.527ZM116.901 159.991L116.751 151.615L113.752 151.669L113.902 160.045L116.901 159.991ZM115.318 153.141L130.032 152.49L129.9 149.493L115.185 150.143L115.318 153.141ZM131.226 151.805L144.205 131.7L141.685 130.073L128.706 150.178L131.226 151.805ZM145.78 121.626L137.287 105.626L134.637 107.032L143.13 123.033L145.78 121.626ZM135.2 105.037L118.25 115.037L119.774 117.621L136.725 107.621L135.2 105.037ZM117.693 117.043L125.844 132.097L128.482 130.668L120.331 115.615L117.693 117.043ZM127.196 132.882L140.448 132.587L140.381 129.588L127.13 129.883L127.196 132.882ZM144.334 131.454L145.851 127.741L143.073 126.607L141.556 130.32L144.334 131.454ZM145.962 127.172L145.955 122.327L142.955 122.332L142.962 127.176L145.962 127.172ZM141.457 132.166L145.505 128.252L143.419 126.096L139.372 130.009L141.457 132.166ZM113.389 123.083L113.62 131.603L116.619 131.521L116.388 123.002L113.389 123.083ZM115.142 133.062L127.185 132.882L127.141 129.882L115.097 130.062L115.142 133.062Z" fill="#00856F"/>
<defs>
<filter id="filter0_i_0_1" x="0.51123" y="0" width="227.281" height="255.871" filterUnits="userSpaceOnUse" color-interpolation-filters="sRGB">
<feFlood flood-opacity="0" result="BackgroundImageFix"/>
<feBlend mode="normal" in="SourceGraphic" in2="BackgroundImageFix" result="shape"/>
<feColorMatrix in="SourceAlpha" type="matrix" values="0 0 0 0 0 0 0 0 0 0 0 0 0 0 0 0 0 0 127 0" result="hardAlpha"/>
<feOffset dy="4"/>
<feGaussianBlur stdDeviation="2"/>
<feComposite in2="hardAlpha" operator="arithmetic" k2="-1" k3="1"/>
<feColorMatrix type="matrix" values="0 0 0 0 0 0 0 0 0 0 0 0 0 0 0 0 0 0 0.25 0"/>
<feBlend mode="normal" in2="shape" result="effect1_innerShadow_0_1"/>
</filter>
</defs>
</svg>
